<svg version="1.1" id="Layer_1" xmlns="http://www.w3.org/2000/svg" xmlns:xlink="http://www.w3.org/1999/xlink" x="0px" y="0px"
	 width="100%" viewBox="0 0 715 717" enable-background="new 0 0 715 717" xml:space="preserve">
<path fill="#6455F0" opacity="1.000000" stroke="none" 
	d="
M338.000000,718.000000 
	C268.312439,718.000000 198.624878,718.000000 128.363342,717.660522 
	C125.333138,716.339783 122.845619,715.429443 120.426910,714.363037 
	C114.627922,711.806091 108.740280,709.409790 103.119209,706.502441 
	C98.474380,704.099976 98.743744,699.264771 98.468636,694.856812 
	C98.450279,694.562744 98.158035,694.285706 98.025314,693.630432 
	C98.404503,692.169373 98.488892,690.876770 99.144814,690.023438 
	C101.767128,686.612244 104.580772,683.348816 107.297661,680.009521 
	C110.545570,676.017639 113.766991,672.004150 117.279816,667.821045 
	C121.375229,663.429016 125.190697,659.215942 129.256226,654.879150 
	C130.004089,654.503662 130.501877,654.251831 131.296570,653.845825 
	C135.218079,650.584167 138.888504,647.527893 142.450790,644.350342 
	C144.718674,642.327393 146.826141,640.124573 149.279816,637.826660 
	C151.369385,636.101074 153.184692,634.551270 155.349930,632.924561 
	C162.365326,629.260681 169.091461,625.778442 175.639984,621.989319 
	C176.807724,621.313599 177.239120,619.365479 178.259674,617.881348 
	C179.004730,617.506042 179.500656,617.254272 180.079865,617.225586 
	C180.774826,617.299133 181.386505,617.149597 182.180542,616.849976 
	C182.597519,616.488464 182.810776,616.257263 183.305969,615.934082 
	C184.408157,615.242249 185.207001,614.622681 186.254410,614.003052 
	C186.502960,614.002991 187.000046,614.001953 187.371429,613.971558 
	C191.495682,611.961609 195.248550,609.981995 199.324203,607.976929 
	C200.431122,607.633545 201.215256,607.315552 202.340439,606.910095 
	C208.121964,603.549194 213.562454,600.275818 219.242844,596.846802 
	C219.989838,596.130493 220.496918,595.569763 221.364227,594.975830 
	C227.375610,593.044617 231.320221,589.229614 234.257904,584.004639 
	C234.505280,584.003662 235.000000,584.000000 235.272308,583.824219 
	C236.365601,582.433472 237.186554,581.218567 238.230133,579.775085 
	C239.636566,578.033691 240.820374,576.520935 242.319168,574.892212 
	C249.089432,565.184204 255.544724,555.592102 262.156952,545.743896 
	C262.876801,544.660095 263.439697,543.832520 264.274353,542.828003 
	C265.365295,541.434875 266.184479,540.218689 267.001831,539.001221 
	C267.000000,539.000000 267.002869,539.002625 267.282776,538.822266 
	C274.543671,532.184937 280.371124,524.889893 284.288727,515.819336 
	C286.379974,513.091370 288.190918,510.547791 290.280396,507.897888 
	C291.038086,507.194183 291.517212,506.596832 291.998322,505.750183 
	C292.000305,505.500824 292.003693,505.002136 292.273499,504.806396 
	C298.030914,496.741394 303.518494,488.872101 309.187256,480.852356 
	C309.601257,480.489685 309.812866,480.258118 310.343079,479.931641 
	C312.455292,478.237396 314.227631,476.618713 316.192566,474.793060 
	C316.924500,474.059723 317.463806,473.533356 318.332092,472.933716 
	C319.776337,471.908142 320.891602,470.955811 322.256836,469.879700 
	C323.004547,469.503937 323.502258,469.251953 324.355499,468.969757 
	C327.140656,467.292603 329.570343,465.645691 332.250854,463.875366 
	C333.001007,463.500092 333.500275,463.248260 334.302795,462.925629 
	C335.402771,462.236206 336.199493,461.617584 336.998169,460.750854 
	C337.000122,460.502747 337.003021,460.006500 337.357361,459.929932 
	C340.142761,458.236420 342.573822,456.619446 345.354095,454.973267 
	C347.468842,453.962708 349.234436,452.981354 351.278961,451.894592 
	C352.039398,451.193176 352.520905,450.597168 353.288818,449.860138 
	C354.717804,448.813354 355.860382,447.907532 357.312378,446.849976 
	C363.283203,443.448975 369.059814,440.330353 372.001526,434.001099 
	C372.000000,434.000000 372.002350,434.002533 372.254761,433.821167 
	C372.999054,432.762543 373.490967,431.885223 373.992493,430.717529 
	C374.006622,430.233551 374.011078,430.039917 374.287415,429.631592 
	C383.170197,425.108490 390.327118,418.867340 397.053772,412.141083 
	C406.215759,402.979675 415.115051,393.555878 424.259094,384.376129 
	C433.401184,375.198364 442.799469,366.275177 451.913116,357.069733 
	C461.047638,347.843231 469.882721,338.319580 479.054016,329.130737 
	C480.985107,327.195923 483.807739,326.150909 486.219543,324.695862 
	C486.896149,327.576660 488.154083,330.456696 488.157776,333.338348 
	C488.188354,357.165375 487.924530,380.992584 487.886963,404.819977 
	C487.872620,413.916260 491.504089,421.213684 499.557526,425.918060 
	C508.237854,430.988586 521.642456,430.278534 528.249756,418.081299 
	C531.909485,411.325378 532.919556,404.348724 532.921753,396.976196 
	C532.929565,370.979706 532.917480,344.983246 532.938660,318.986755 
	C532.940247,316.997711 533.143066,315.008759 533.593079,312.960510 
	C535.762634,309.731842 537.678406,306.608856 539.401489,303.382965 
	C542.657959,297.286346 545.803772,291.130585 548.997803,284.751007 
	C549.000000,284.502625 549.002991,284.005890 549.269531,283.840454 
	C555.915833,276.461395 562.377380,269.317566 568.628967,261.994507 
	C570.700256,259.568237 572.231262,256.680725 574.331421,253.978851 
	C575.435730,253.635666 576.217834,253.317719 577.282715,252.818146 
	C579.379761,250.425644 581.194092,248.214767 583.189209,245.853271 
	C583.602356,245.490265 583.813354,245.258514 584.328735,244.969528 
	C585.437134,244.288467 586.219788,243.645294 587.001221,243.001068 
	C587.000000,243.000000 587.002441,243.002197 587.291992,242.852142 
	C589.055969,241.135635 590.530457,239.569153 592.186218,237.851654 
	C592.600342,237.487717 592.812012,237.255447 593.261841,236.839783 
	C594.349182,235.784790 595.177124,234.893845 596.244873,233.846954 
	C596.990540,233.128922 597.496460,232.566833 598.315063,231.890228 
	C600.084229,229.850418 601.540894,227.925125 603.149719,225.818756 
	C603.515930,225.404907 603.748657,225.192551 604.306152,224.849030 
	C610.874084,219.354889 615.256958,212.734344 618.188599,204.852081 
	C618.602661,204.487381 618.814270,204.254761 619.317322,203.880600 
	C623.422424,198.173401 627.215088,192.588501 631.214233,186.742401 
	C633.614685,183.989410 635.808716,181.497589 638.285278,178.828903 
	C644.379272,171.436127 650.190674,164.220200 656.273621,156.805634 
	C660.479370,150.509674 664.375793,144.387512 668.359863,138.322876 
	C671.519714,133.512955 674.786865,128.773544 678.187500,123.852295 
	C678.601135,123.489441 678.812439,123.257698 679.350586,122.974991 
	C681.133545,121.630135 682.568237,120.316795 684.001465,119.001724 
	C684.000000,119.000000 684.002930,119.004303 684.306152,118.932419 
	C685.408020,118.241333 686.206543,117.622116 687.253784,117.001404 
	C687.502563,116.999916 688.000000,116.995895 688.348145,116.905090 
	C691.799561,115.210777 694.902832,113.607269 698.364746,112.034943 
	C705.090515,114.509026 709.327271,119.187393 712.469482,125.058800 
	C713.555420,127.087845 714.818054,129.022324 716.000000,131.000000 
	C716.000000,208.354233 716.000000,285.708466 715.669800,363.438324 
	C707.416931,356.722260 705.815918,358.737305 698.281067,364.631531 
	C691.018494,370.312683 684.811829,377.397491 678.428772,384.137909 
	C664.738586,398.594635 651.539124,413.527557 637.574463,427.709900 
	C620.672058,444.875671 603.219543,461.501221 585.940430,478.294006 
	C576.320374,487.643372 566.301392,496.596680 556.939575,506.194122 
	C543.156677,520.323975 530.171997,535.244324 516.166931,549.142456 
	C499.080383,566.098572 481.185425,582.236877 463.838409,598.934814 
	C451.880310,610.445496 440.306396,622.354126 428.475006,633.997803 
	C413.887421,648.353821 399.222046,662.630981 384.561890,676.913086 
	C381.946991,679.460571 379.136780,681.807251 376.514435,684.347534 
	C366.182678,694.355957 354.571655,702.579712 341.935791,709.409973 
	C338.535706,711.247864 336.547180,713.870972 338.000000,718.000000 
z"/>
<path fill="#5B60F2" opacity="1.000000" stroke="none" 
	d="
M221.003998,595.009094 
	C220.496918,595.569763 219.989838,596.130493 218.856094,596.855835 
	C213.163925,599.456604 208.066620,601.830994 203.072617,604.405823 
	C202.438110,604.732910 202.343903,606.107971 201.999390,606.997559 
	C201.215256,607.315552 200.431122,607.633545 199.050201,607.832397 
	C194.635620,609.809509 190.817825,611.905762 187.000046,614.001953 
	C187.000046,614.001953 186.502960,614.002991 185.927582,614.038940 
	C184.569046,614.718750 183.785858,615.362549 183.002655,616.006348 
	C182.810776,616.257263 182.597519,616.488464 181.846985,616.849976 
	C180.886230,617.000793 180.441391,617.001587 179.996582,617.002441 
	C179.500656,617.254272 179.004730,617.506042 177.910919,617.956665 
	C172.880203,620.652100 168.310486,622.938904 164.059082,625.713440 
	C160.829514,627.821167 158.004837,630.549377 155.000000,633.001465 
	C153.184692,634.551270 151.369385,636.101074 148.934052,637.901978 
	C143.914307,641.292175 139.331223,644.212097 135.197845,647.669617 
	C133.336060,649.226929 132.371368,651.856750 130.999664,653.999939 
	C130.501877,654.251831 130.004089,654.503662 128.924347,654.963135 
	C124.561569,659.447266 120.780731,663.723633 116.999878,668.000000 
	C113.766991,672.004150 110.545570,676.017639 107.297661,680.009521 
	C104.580772,683.348816 101.767128,686.612244 99.144814,690.023438 
	C98.488892,690.876770 98.404503,692.169373 97.708130,693.800659 
	C97.024269,696.016907 96.114662,697.819153 96.451164,699.346985 
	C98.253929,707.531921 104.371239,711.474670 111.666084,714.173523 
	C114.817871,715.339600 117.891075,716.718079 120.999992,718.000000 
	C81.068733,718.000000 41.137463,718.000000 1.000000,718.000000 
	C1.000000,673.312622 1.000000,628.625000 1.342292,583.393311 
	C3.456405,581.566223 5.228225,580.283142 7.249143,578.999268 
	C7.498240,578.998535 7.996433,578.997559 8.336702,578.923767 
	C10.117980,577.566650 11.558990,576.283325 13.000000,575.000000 
	C13.000000,575.000000 13.000038,575.000000 13.365036,574.970520 
	C15.820023,573.294006 17.910011,571.647034 20.325901,569.963318 
	C21.434399,569.284424 22.216997,568.642212 22.999798,568.000000 
	C23.000000,568.000000 22.999231,568.000000 23.342176,567.924561 
	C25.456352,566.231934 27.227583,564.614746 28.999447,562.998779 
	C29.000076,563.000000 28.998281,562.999023 29.314207,562.914429 
	C30.419916,561.885986 31.209698,560.942078 32.155933,559.758423 
	C32.875137,559.012451 33.437889,558.506226 34.326614,557.963257 
	C35.434540,557.283020 36.216488,556.639648 37.122105,555.745850 
	C37.497429,554.997009 37.749081,554.498535 38.363319,553.967163 
	C40.150646,552.289551 41.575390,550.644775 43.151741,548.818726 
	C43.516659,548.404236 43.748928,548.191772 44.331184,547.914978 
	C49.440960,542.885803 54.219704,537.941650 59.112537,532.692139 
	C60.817856,530.591125 62.409081,528.795593 64.279037,526.894287 
	C65.038437,526.192383 65.519112,525.596191 66.156021,524.760010 
	C66.874741,524.013367 67.437218,523.506653 68.329681,522.915283 
	C70.439224,520.886230 72.218781,518.941895 73.999168,516.998779 
	C74.000000,517.000000 73.997749,516.997742 74.228287,516.924927 
	C74.639313,516.234802 74.819809,515.617371 75.237625,514.767151 
	C77.983505,512.022888 80.492050,509.511414 83.334198,506.913635 
	C85.445198,504.551514 87.222603,502.275757 89.250481,499.826385 
	C90.333969,498.768524 91.166992,497.884277 92.295593,496.870178 
	C93.060875,495.827332 93.530586,494.914276 94.151886,493.819702 
	C94.516792,493.404755 94.749069,493.192017 95.332047,492.914673 
	C98.109268,489.886627 100.554749,486.943939 103.181152,483.848999 
	C103.594879,483.482880 103.807625,483.250610 104.325974,482.916443 
	C105.767509,481.554596 106.883369,480.276337 108.150482,478.816833 
	C108.514687,478.402496 108.746658,478.190247 109.313713,477.914337 
	C110.419319,476.885376 111.208878,475.940857 112.155113,474.739929 
	C112.874969,473.655670 113.438141,472.827820 114.327156,471.963257 
	C115.434860,471.283569 116.216713,470.640625 116.999283,469.998840 
	C117.000000,470.000000 116.997818,469.998474 117.329117,469.913879 
	C121.106834,466.219116 124.553261,462.608948 128.151215,458.817627 
	C128.516006,458.403595 128.748215,458.191437 129.315125,457.915283 
	C130.420578,456.887115 131.210297,455.943695 132.151855,454.818970 
	C132.517349,454.404572 132.749863,454.192108 133.355988,453.969604 
	C135.140030,452.624939 136.569305,451.310913 138.149765,449.815765 
	C138.513855,449.401825 138.745834,449.189850 139.325943,448.914978 
	C141.103333,447.220764 142.551666,445.610382 144.354889,443.969421 
	C146.139160,442.625092 147.568542,441.311310 148.998962,439.998779 
	C149.000000,440.000000 148.997345,439.997894 149.326385,439.914246 
	C151.103043,438.219574 152.550659,436.608551 153.999146,434.998779 
	C154.000000,435.000000 153.997696,434.998260 154.329010,434.913757 
	C157.773071,431.552124 160.885818,428.275024 163.999298,424.998962 
	C164.000000,425.000000 163.998032,424.998779 164.333832,424.910278 
	C165.779755,423.214691 166.889877,421.607666 168.239441,419.843628 
	C168.985931,419.124420 169.492966,418.562195 170.331757,417.914673 
	C173.109238,414.886780 175.554947,411.944275 178.156921,408.761658 
	C178.875671,408.014374 179.438141,407.507172 180.279327,406.894287 
	C181.038696,406.192383 181.519348,405.596191 182.328720,404.915710 
	C184.104477,403.219849 185.551514,401.608276 187.070557,399.693787 
	C187.761902,398.593872 188.381241,397.796936 189.316193,396.915192 
	C190.421204,395.886932 191.210602,394.943451 192.180756,393.847900 
	C192.594177,393.482208 192.806839,393.250275 193.330521,392.914978 
	C196.441025,389.886658 199.220505,386.943329 202.181000,383.847961 
	C202.594971,383.482391 202.807831,383.250397 203.367157,382.985657 
	C204.821686,381.979279 205.909653,380.987183 207.148895,379.814209 
	C207.513138,379.400787 207.745163,379.189117 208.325378,378.914612 
	C210.103027,377.220612 211.551514,375.610321 213.358398,373.968872 
	C216.811356,370.958618 219.905945,367.979492 223.000259,365.000183 
	C223.000000,365.000000 223.000610,365.000000 223.348785,364.969574 
	C224.797989,363.959442 225.898987,362.979706 227.000000,362.000000 
	C227.000000,362.000000 226.999390,362.000000 227.325134,361.916534 
	C228.767258,360.555389 229.883621,359.277679 231.151733,357.818695 
	C231.516968,357.404297 231.749359,357.191833 232.326202,356.916473 
	C233.767868,355.555298 234.883942,354.277649 236.170258,352.732361 
	C237.560333,351.309814 238.780167,350.154907 240.348267,348.969543 
	C241.796982,347.958588 242.897446,346.978058 243.998947,345.998779 
	C244.000000,346.000000 243.997330,345.997864 244.329315,345.913208 
	C247.440857,343.218903 250.220428,340.609253 253.180862,337.847595 
	C253.594528,337.482147 253.807281,337.250275 254.359146,336.968445 
	C256.812195,335.291260 258.906097,333.645630 261.192810,331.792725 
	C261.924133,331.056976 262.462677,330.528503 263.362518,329.967712 
	C266.072113,327.392303 269.070740,325.191406 270.628143,322.232086 
	C273.528381,316.721130 275.589569,310.768677 278.071228,304.725464 
	C278.428589,303.967316 278.714691,303.483643 279.329956,302.905029 
	C280.439423,301.539978 281.219696,300.269928 282.123657,298.749115 
	C282.498596,297.998932 282.749908,297.499481 283.296661,296.870117 
	C284.061401,295.827240 284.530701,294.914276 285.239624,293.844360 
	C285.986603,293.124908 286.493896,292.562469 287.332092,291.914917 
	C290.441956,288.886169 293.220978,285.942474 296.151611,282.817688 
	C296.516571,282.403656 296.748840,282.191467 297.315674,281.915222 
	C298.420898,280.886963 299.210449,279.943481 300.219360,278.821136 
	C300.957886,278.427795 301.477112,278.213287 302.322449,277.915771 
	C303.765717,276.555176 304.882843,275.277588 306.249084,273.999329 
	C306.498169,273.998657 306.996338,273.998138 307.322479,273.915253 
	C308.765747,272.554901 309.882874,271.277466 311.250275,269.875854 
	C311.999939,269.501099 312.499359,269.250549 313.360443,268.968048 
	C316.481415,266.957397 319.240692,264.978699 322.348206,262.969574 
	C323.797638,261.959442 324.898834,260.979736 326.250244,259.875824 
	C326.999908,259.501099 327.499329,259.250549 328.363159,258.967407 
	C339.136169,253.082108 349.603485,247.330032 359.916077,241.312775 
	C362.842346,239.605331 365.317657,237.124969 367.999878,234.999542 
	C368.000000,235.000000 367.999207,234.999390 368.366333,234.969849 
	C371.488861,232.959778 374.244232,230.979233 377.151031,228.817490 
	C377.515594,228.403290 377.747711,228.191071 378.314606,227.914978 
	C379.420288,226.886917 380.210144,225.943466 381.215576,224.789230 
	C382.286194,224.051788 383.141266,223.525131 384.292419,222.869324 
	C385.059021,221.827332 385.529510,220.914505 386.279175,219.818024 
	C388.705536,217.422913 390.852753,215.211441 393.335541,212.911072 
	C394.780762,211.214996 395.890381,209.607803 397.295624,207.870422 
	C398.060822,206.826767 398.530396,205.913300 399.330200,204.913361 
	C403.558411,199.944366 407.453217,195.059326 411.354950,190.179810 
	C423.501068,174.989761 435.402222,159.595123 447.862793,144.667496 
	C462.126068,127.580246 476.195557,110.351616 493.880737,96.374947 
	C508.866455,84.531647 522.986267,71.583206 537.307678,58.918400 
	C539.682312,56.818455 541.126099,53.665813 543.215515,50.788673 
	C544.286560,50.051273 545.142029,49.524830 546.355896,48.967789 
	C547.882080,48.371056 549.226135,48.014622 550.189636,47.205231 
	C557.154663,41.354061 564.122009,35.500462 570.917908,29.455675 
	C573.821533,26.872936 576.316772,23.830971 578.998779,20.998840 
	C579.000000,21.000000 578.997559,20.998209 579.276733,20.893051 
	C580.037292,20.191877 580.518616,19.595860 581.215942,18.784977 
	C582.287903,17.713488 583.143982,16.856863 584.325928,15.963552 
	C585.434631,15.284519 586.217285,14.642171 587.219299,13.764216 
	C588.958252,12.352142 590.477905,11.175676 592.357178,9.967865 
	C596.911926,8.101174 601.172363,6.333595 602.000000,1.000000 
	C639.931763,1.000000 677.863525,1.000000 716.000000,1.000000 
	C716.000000,44.020679 716.000000,87.041679 716.000000,130.531342 
	C714.818054,129.022324 713.555420,127.087845 712.469482,125.058800 
	C709.327271,119.187393 705.090515,114.509026 697.961426,112.045609 
	C693.798523,113.062973 689.089722,111.680504 688.000000,116.995895 
	C688.000000,116.995895 687.502563,116.999916 686.927185,117.037292 
	C685.568848,117.717888 684.785889,118.361115 684.002930,119.004318 
	C684.002930,119.004303 684.000000,119.000000 683.646240,119.031342 
	C681.862427,120.377296 680.432434,121.691910 679.002441,123.006523 
	C678.812439,123.257698 678.601135,123.489441 677.855042,123.937950 
	C672.360291,130.522919 667.109314,136.683578 662.500610,143.292114 
	C659.804199,147.158524 658.132629,151.739639 655.670410,156.091980 
	C651.077209,161.340714 646.723450,166.425827 642.592468,171.685852 
	C640.823547,173.938156 639.518494,176.554688 638.002747,179.005737 
	C635.808716,181.497589 633.614685,183.989410 630.881104,186.827026 
	C626.354675,192.167480 622.346741,197.145981 618.436035,202.199692 
	C618.216125,202.483871 618.796753,203.387543 619.004822,204.002899 
	C618.814270,204.254761 618.602661,204.487381 617.859863,204.942078 
	C612.899902,211.789169 608.449951,218.394897 604.000000,225.000610 
	C603.748657,225.192551 603.515930,225.404907 602.837769,225.937988 
	C600.916626,228.160446 599.459534,230.082611 598.002441,232.004761 
	C597.496460,232.566833 596.990540,233.128922 595.902954,233.892578 
	C594.548401,235.064041 593.775391,236.033936 593.002441,237.003830 
	C592.812012,237.255447 592.600342,237.487717 591.822998,237.883667 
	C589.853088,239.711868 588.427734,241.357025 587.002441,243.002197 
	C587.002441,243.002197 587.000000,243.000000 586.674805,243.037262 
	C585.567383,243.718842 584.785217,244.363129 584.003052,245.007416 
	C583.813354,245.258514 583.602356,245.490265 582.851440,245.938110 
	C579.962097,247.985519 575.354919,248.050415 577.000000,252.999771 
	C576.217834,253.317719 575.435730,253.635666 574.003906,254.068649 
	C567.782776,259.965302 561.930298,265.508545 556.744751,271.617889 
	C553.626953,275.291199 551.548523,279.846802 549.002991,284.005890 
	C549.002991,284.005890 549.000000,284.502625 548.668945,284.843262 
	C546.388062,287.796844 544.290588,290.314056 542.520813,293.043701 
	C539.333008,297.960388 536.341492,303.004303 533.155640,307.538635 
	C533.119812,294.755005 533.703247,282.404510 533.138794,270.106659 
	C532.494934,256.077759 522.352661,240.882065 503.772614,242.820679 
	C492.045197,244.044312 480.156769,243.956711 468.338013,244.026825 
	C439.347626,244.198853 410.355743,244.152435 381.364532,244.123611 
	C373.790985,244.116074 366.681122,245.463806 359.655151,248.611481 
	C344.443787,255.426346 344.434723,272.231110 353.906616,280.370880 
	C360.038818,285.640625 367.731964,287.406708 375.219055,287.703552 
	C394.679688,288.475159 414.181213,288.189789 433.665558,288.405365 
	C438.321930,288.456879 442.999725,288.607666 447.615356,289.154449 
	C449.144135,289.335571 451.081024,290.616180 451.741974,291.938568 
	C452.164093,292.783112 450.907104,294.961853 449.853485,295.965942 
	C444.382538,301.179718 438.660858,306.129822 433.168701,311.322144 
	C427.099396,317.060150 421.137878,322.914520 415.213043,328.802338 
	C407.646545,336.321564 400.170715,343.932007 392.642548,351.489929 
	C387.313049,356.840515 382.181976,362.416870 376.550079,367.429291 
	C372.051727,371.432800 366.514587,370.500549 362.418335,366.102478 
	C358.732666,362.145355 354.851501,358.368134 351.006958,354.561676 
	C343.206421,346.838409 335.494873,339.019165 327.513153,331.486877 
	C321.168884,325.499878 314.634674,319.688660 307.885468,314.165161 
	C303.288208,310.402802 297.918335,309.195251 292.825775,313.337067 
	C285.965027,318.916962 279.082825,324.520508 272.700500,330.626740 
	C263.438843,339.487732 254.660751,348.852081 245.592712,357.918030 
	C236.398819,367.109802 227.084305,376.180847 217.857315,385.339691 
	C208.408325,394.718964 198.850876,403.996124 189.633698,413.599060 
	C184.304718,419.151093 178.984116,424.871765 174.685669,431.212097 
	C169.185455,439.325073 172.525070,451.368561 181.046936,457.853943 
	C186.687531,462.146637 192.230957,466.845825 199.955841,462.865723 
	C202.860352,461.369171 205.913330,459.790253 208.210632,457.544952 
	C225.188797,440.951294 241.995377,424.182007 258.851501,407.463470 
	C269.416748,396.984406 279.904541,386.425842 290.570099,376.049957 
	C294.781097,371.953308 299.538269,371.371124 304.775635,374.256226 
	C307.462646,375.736359 309.926514,377.805511 312.106628,379.991943 
	C325.866943,393.792023 339.400574,407.819977 353.265442,421.513031 
	C358.882446,427.060364 365.272339,431.632629 374.015564,429.846252 
	C374.011078,430.039917 374.006622,430.233551 373.699127,430.846924 
	C372.931519,432.178650 372.466919,433.090607 372.002350,434.002533 
	C372.002350,434.002533 372.000000,434.000000 371.668213,434.086334 
	C367.891815,436.880066 364.365601,439.492035 361.038727,442.337128 
	C359.493683,443.658386 358.336182,445.432800 357.002930,447.001770 
	C355.860382,447.907532 354.717804,448.813354 353.009613,449.965332 
	C351.962646,450.807678 351.481323,451.403839 351.000000,452.000000 
	C349.234436,452.981354 347.468842,453.962708 344.991455,455.004578 
	C341.854126,456.712219 339.428558,458.359344 337.002991,460.006470 
	C337.003021,460.006500 337.000122,460.502747 336.672791,460.787598 
	C335.563507,461.713806 334.781525,462.355133 333.999542,462.996429 
	C333.500275,463.248260 333.001007,463.500092 331.984497,463.705017 
	C328.978149,465.438751 326.489075,467.219391 324.000000,469.000000 
	C323.502258,469.251953 323.004547,469.503937 321.926605,469.950867 
	C320.231995,471.099579 319.117554,472.053284 318.003113,473.007019 
	C317.463806,473.533356 316.924500,474.059723 315.843140,474.834778 
	C313.535126,476.724701 311.769165,478.365936 310.003235,480.007172 
	C309.812866,480.258118 309.601257,480.489685 308.859833,480.941956 
	C302.952240,488.029175 297.508972,494.842438 292.220764,501.774048 
	C291.675232,502.489075 292.053894,503.909180 292.003693,505.002136 
	C292.003693,505.002136 292.000305,505.500824 291.719849,505.856323 
	C290.960236,506.809265 290.481049,507.406769 290.001862,508.004242 
	C288.190918,510.547791 286.379974,513.091370 283.974609,515.936646 
	C279.637512,521.077271 275.808960,525.853088 272.187134,530.780823 
	C270.273224,533.384827 268.719330,536.253479 267.002869,539.002625 
	C267.002869,539.002625 267.000000,539.000000 266.671936,539.095459 
	C265.563477,540.462158 264.783020,541.733521 264.002625,543.004883 
	C263.439697,543.832520 262.876801,544.660095 261.844727,545.862061 
	C254.918472,555.827026 248.461349,565.417603 242.004211,575.008179 
	C240.820374,576.520935 239.636566,578.033691 237.899902,579.868774 
	C236.564713,581.460632 235.782349,582.730347 235.000000,584.000000 
	C235.000000,584.000000 234.505280,584.003662 233.924728,584.088013 
	C229.230789,587.784607 225.117401,591.396851 221.003998,595.009094 
z"/>
<path fill="#4E6DF3" opacity="1.000000" stroke="none" 
	d="
M244.000000,1.000003 
	C313.687561,1.000000 383.375122,1.000000 453.622009,1.326684 
	C455.315552,2.827443 456.380157,4.079797 457.596222,5.161880 
	C462.475983,9.503964 462.850128,11.841325 458.608643,16.875534 
	C456.383270,19.516834 453.701477,21.864342 450.917419,23.928650 
	C438.095795,33.435623 425.068207,42.666168 412.295532,52.237488 
	C388.741791,69.887733 365.454559,87.896561 341.772583,105.371490 
	C330.918182,113.380943 319.678162,120.945869 311.183411,131.519012 
	C304.320007,140.061615 298.576202,149.493256 292.004517,158.282867 
	C278.463959,176.393326 264.392853,194.114365 251.131424,212.423920 
	C240.965744,226.459290 229.068848,238.827545 215.397949,249.115448 
	C199.107635,261.374512 181.785553,272.274261 164.785431,283.574799 
	C150.724640,292.921509 137.565750,303.189636 127.366051,316.870514 
	C119.620132,327.260071 111.815361,337.610809 103.808975,347.799835 
	C94.666473,359.434662 85.379517,370.960297 75.955788,382.368591 
	C66.641975,393.643768 57.625622,405.242767 47.470127,415.722260 
	C37.545296,425.963806 26.382294,435.011047 15.691125,444.501801 
	C10.883982,448.769135 5.902422,452.839996 0.999999,457.000000 
	C1.000000,382.645782 1.000000,308.291534 1.459168,233.468079 
	C8.441374,233.787292 14.484179,232.202148 20.132290,229.071838 
	C23.022745,227.469864 25.910948,225.759674 28.477705,223.697098 
	C36.602985,217.167862 45.481880,211.265991 52.388329,203.605881 
	C61.878670,193.079926 69.631149,181.007751 78.500710,169.895370 
	C86.686890,159.639175 94.543785,148.915298 103.984406,139.904785 
	C129.092575,115.940506 154.726181,92.508057 180.643982,69.417641 
	C196.794388,55.029076 212.460464,40.224411 226.514587,23.801840 
	C232.733276,16.535158 238.194778,8.620510 244.000000,1.000003 
z"/>
<path fill="#5466F3" opacity="1.000000" stroke="none" 
	d="
M0.999999,457.468658 
	C5.902422,452.839996 10.883982,448.769135 15.691125,444.501801 
	C26.382294,435.011047 37.545296,425.963806 47.470127,415.722260 
	C57.625622,405.242767 66.641975,393.643768 75.955788,382.368591 
	C85.379517,370.960297 94.666473,359.434662 103.808975,347.799835 
	C111.815361,337.610809 119.620132,327.260071 127.366051,316.870514 
	C137.565750,303.189636 150.724640,292.921509 164.785431,283.574799 
	C181.785553,272.274261 199.107635,261.374512 215.397949,249.115448 
	C229.068848,238.827545 240.965744,226.459290 251.131424,212.423920 
	C264.392853,194.114365 278.463959,176.393326 292.004517,158.282867 
	C298.576202,149.493256 304.320007,140.061615 311.183411,131.519012 
	C319.678162,120.945869 330.918182,113.380943 341.772583,105.371490 
	C365.454559,87.896561 388.741791,69.887733 412.295532,52.237488 
	C425.068207,42.666168 438.095795,33.435623 450.917419,23.928650 
	C453.701477,21.864342 456.383270,19.516834 458.608643,16.875534 
	C462.850128,11.841325 462.475983,9.503964 457.596222,5.161880 
	C456.380157,4.079797 455.315552,2.827443 454.090637,1.326684 
	C501.687561,1.000000 549.375122,1.000000 597.499939,1.358960 
	C595.957336,4.478353 593.977478,7.238785 591.997559,9.999214 
	C590.477905,11.175676 588.958252,12.352142 586.916016,13.835864 
	C585.595642,14.762159 584.797852,15.381200 584.000000,16.000240 
	C583.143982,16.856863 582.287903,17.713488 580.937012,18.890415 
	C579.960632,19.806549 579.479065,20.402378 578.997559,20.998207 
	C578.997559,20.998209 579.000000,21.000000 578.663086,21.085022 
	C569.861389,27.968649 561.324890,34.680977 552.974365,41.617161 
	C550.388916,43.764736 548.308960,46.520882 545.997559,48.998390 
	C545.142029,49.524830 544.286560,50.051273 542.930725,50.965191 
	C533.514709,59.078030 524.677185,66.895996 515.667358,74.509956 
	C495.252106,91.762245 474.247925,108.373878 457.222076,129.243744 
	C442.100433,147.779541 426.782257,166.159317 411.932465,184.910187 
	C407.011658,191.123703 403.276978,198.276581 398.747253,205.181702 
	C397.996338,206.242264 397.498169,207.121140 396.723083,208.178162 
	C395.297424,209.904221 394.148712,211.452103 393.000000,213.000000 
	C390.852753,215.211441 388.705536,217.422913 386.026306,219.999435 
	C384.994995,221.242493 384.495667,222.120499 383.996338,222.998474 
	C383.141266,223.525131 382.286194,224.051788 380.899902,224.873932 
	C379.578674,226.112793 378.788727,227.056183 377.998779,227.999573 
	C377.747711,228.191071 377.515594,228.403290 376.807800,228.893280 
	C373.541840,231.099991 370.770508,233.049683 367.999207,234.999390 
	C367.999207,234.999390 368.000000,235.000000 367.638702,235.031616 
	C354.707092,242.400055 342.129974,249.725311 329.585327,257.105774 
	C328.916504,257.499237 328.521332,258.357910 327.998779,259.000000 
	C327.499329,259.250549 326.999908,259.501099 325.935333,259.952118 
	C324.246765,261.101715 323.123383,262.050842 321.656006,263.075745 
	C318.540955,265.100983 315.769867,267.050476 312.998779,269.000000 
	C312.499359,269.250549 311.999939,269.501099 310.924622,269.959229 
	C309.231232,271.443909 308.113800,272.721039 306.996338,273.998169 
	C306.996338,273.998138 306.498169,273.998657 305.923340,274.082642 
	C304.231110,275.444000 303.113739,276.721405 301.996338,277.998779 
	C301.477112,278.213287 300.957886,278.427795 299.903687,278.905823 
	C298.579163,280.112946 297.789581,281.056488 297.000000,282.000000 
	C296.748840,282.191467 296.516571,282.403656 295.820618,282.902893 
	C292.559143,286.112854 289.780182,289.056427 287.001221,292.000000 
	C286.493896,292.562469 285.986603,293.124908 284.986938,294.025940 
	C283.996826,295.243011 283.499023,296.121490 283.001221,297.000000 
	C282.749908,297.499481 282.498596,297.998932 281.851654,298.925354 
	C280.637604,300.568237 279.819183,301.784119 279.000793,303.000000 
	C278.714691,303.483643 278.428589,303.967316 277.837341,304.969055 
	C276.380005,307.285065 275.165100,309.046265 274.087067,310.887573 
	C270.365997,317.243286 266.692719,323.626984 263.001221,330.000000 
	C262.462677,330.528503 261.924133,331.056976 260.861115,331.876709 
	C258.224426,333.778625 256.112213,335.389313 254.000000,337.000000 
	C253.807281,337.250275 253.594528,337.482147 252.836792,337.923340 
	C249.540329,340.766663 246.768829,343.382263 243.997330,345.997864 
	C243.997330,345.997864 244.000000,346.000000 243.684296,346.075562 
	C242.245728,347.100769 241.122849,348.050385 239.999985,349.000000 
	C238.780167,350.154907 237.560333,351.309814 235.844604,352.815857 
	C234.232666,354.444641 233.116638,355.722321 232.000610,357.000000 
	C231.749359,357.191833 231.516968,357.404297 230.826065,357.902161 
	C229.232254,359.444641 228.115814,360.722321 226.999390,362.000000 
	C226.999390,362.000000 227.000000,362.000000 226.685181,362.076477 
	C225.247101,363.101959 224.123856,364.050995 223.000610,365.000000 
	C223.000610,365.000000 223.000000,365.000000 222.715637,365.176392 
	C219.287537,368.235199 216.143768,371.117615 212.671326,374.084167 
	C210.893829,375.778351 209.445038,377.388336 207.996246,378.998322 
	C207.745163,379.189117 207.513138,379.400787 206.815353,379.851379 
	C205.220581,381.046295 204.110596,382.023132 203.000610,383.000000 
	C202.807831,383.250397 202.594971,383.482391 201.850006,383.932922 
	C198.558502,387.113281 195.779007,390.056641 192.999512,393.000000 
	C192.806839,393.250275 192.594177,393.482208 191.865112,393.932617 
	C190.579330,395.112976 189.789978,396.056488 189.000610,397.000000 
	C188.381241,397.796936 187.761902,398.593872 186.742035,399.778625 
	C184.894348,401.777588 183.447174,403.388794 181.721176,405.105591 
	C180.961777,405.807465 180.481186,406.403717 180.000610,407.000000 
	C179.438141,407.507172 178.875671,408.014374 177.877304,408.941132 
	C174.960953,412.240479 172.480469,415.120239 170.000000,418.000000 
	C169.492966,418.562195 168.985931,419.124420 167.962585,420.021545 
	C166.296860,421.903900 165.147446,423.451324 163.998032,424.998779 
	C163.998032,424.998779 164.000000,425.000000 163.668457,425.084351 
	C160.223846,428.445251 157.110779,431.721771 153.997711,434.998260 
	C153.997696,434.998260 154.000000,435.000000 153.670624,435.083374 
	C151.893295,436.777161 150.445312,438.387512 148.997345,439.997894 
	C148.997345,439.997894 149.000000,440.000000 148.678040,440.079193 
	C146.904037,441.438934 145.452026,442.719482 143.671326,444.084229 
	C141.894043,445.778534 140.445450,447.388641 138.996857,448.998779 
	C138.745834,449.189850 138.513855,449.401825 137.828842,449.896515 
	C135.904907,451.438995 134.453064,452.719635 133.001221,454.000244 
	C132.749863,454.192108 132.517349,454.404572 131.836166,454.903656 
	C130.578903,456.113098 129.789154,457.056549 128.999390,458.000000 
	C128.748215,458.191437 128.516006,458.403595 127.820259,458.902954 
	C123.891106,462.779083 120.444466,466.388763 116.997818,469.998474 
	C116.997818,469.998474 117.000000,470.000000 116.696198,470.070801 
	C115.595375,470.761078 114.798347,471.380524 114.001312,472.000000 
	C113.438141,472.827820 112.874969,473.655670 111.839615,474.825378 
	C110.577499,476.111115 109.787575,477.054932 108.997650,477.998779 
	C108.746658,478.190247 108.514687,478.402496 107.824944,478.900696 
	C106.232193,480.443909 105.116249,481.721954 104.000305,483.000000 
	C103.807625,483.250610 103.594879,483.482880 102.901611,484.028534 
	C99.960869,487.240204 97.480598,490.120117 95.000313,493.000000 
	C94.749069,493.192017 94.516792,493.404755 93.899078,494.001221 
	C92.996445,495.242859 92.498230,496.121429 92.000008,497.000000 
	C91.166992,497.884277 90.333969,498.768524 88.971245,500.006042 
	C86.627899,502.572845 84.814255,504.786438 83.000610,507.000000 
	C80.492050,509.511414 77.983505,512.022888 75.058548,514.986572 
	C74.427345,515.958496 74.212555,516.478088 73.997757,516.997742 
	C73.997749,516.997742 74.000000,517.000000 73.669434,517.083984 
	C71.559151,519.112061 69.779434,521.056030 67.999702,523.000000 
	C67.437218,523.506653 66.874741,524.013367 65.877174,524.865540 
	C64.961487,525.807373 64.480896,526.403687 64.000305,527.000000 
	C62.409081,528.795593 60.817856,530.591125 58.781677,532.777588 
	C53.557865,538.112305 48.779011,543.056152 44.000149,548.000000 
	C43.748928,548.191772 43.516659,548.404236 42.879105,548.992920 
	C40.970158,550.898987 39.485451,552.449463 38.000740,554.000000 
	C37.749081,554.498535 37.497429,554.997009 36.819061,555.818237 
	C35.595108,556.760620 34.797871,557.380310 34.000637,558.000000 
	C33.437889,558.506226 32.875137,559.012451 31.840321,559.843445 
	C30.578262,561.111877 29.788267,562.055420 28.998276,562.999023 
	C28.998281,562.999023 29.000076,563.000000 28.665264,563.084595 
	C26.553381,564.779480 24.776310,566.389709 22.999237,568.000000 
	C22.999231,568.000000 23.000000,568.000000 22.696594,568.071655 
	C21.595463,568.762207 20.797737,569.381104 19.670586,570.084351 
	C17.227449,571.779114 15.113739,573.389526 13.000033,575.000000 
	C13.000038,575.000000 13.000000,575.000000 12.670876,575.083008 
	C10.893309,576.443176 9.444867,577.720398 7.996429,578.997559 
	C7.996433,578.997559 7.498240,578.998535 6.905071,579.074585 
	C4.541269,579.767151 2.770635,580.383545 1.000000,581.000000 
	C1.000000,539.979126 1.000000,498.958221 0.999999,457.468658 
z"/>
<path fill="#6C4CEF" opacity="1.000000" stroke="none" 
	d="
M338.468658,718.000000 
	C336.547180,713.870972 338.535706,711.247864 341.935791,709.409973 
	C354.571655,702.579712 366.182678,694.355957 376.514435,684.347534 
	C379.136780,681.807251 381.946991,679.460571 384.561890,676.913086 
	C399.222046,662.630981 413.887421,648.353821 428.475006,633.997803 
	C440.306396,622.354126 451.880310,610.445496 463.838409,598.934814 
	C481.185425,582.236877 499.080383,566.098572 516.166931,549.142456 
	C530.171997,535.244324 543.156677,520.323975 556.939575,506.194122 
	C566.301392,496.596680 576.320374,487.643372 585.940430,478.294006 
	C603.219543,461.501221 620.672058,444.875671 637.574463,427.709900 
	C651.539124,413.527557 664.738586,398.594635 678.428772,384.137909 
	C684.811829,377.397491 691.018494,370.312683 698.281067,364.631531 
	C705.815918,358.737305 707.416931,356.722260 715.669800,363.906982 
	C716.000000,481.929474 716.000000,599.858948 716.000000,718.000000 
	C590.312500,718.000000 464.624908,718.000000 338.468658,718.000000 
z"/>
<path fill="#4676F4" opacity="1.000000" stroke="none" 
	d="
M243.531342,1.000003 
	C238.194778,8.620510 232.733276,16.535158 226.514587,23.801840 
	C212.460464,40.224411 196.794388,55.029076 180.643982,69.417641 
	C154.726181,92.508057 129.092575,115.940506 103.984406,139.904785 
	C94.543785,148.915298 86.686890,159.639175 78.500710,169.895370 
	C69.631149,181.007751 61.878670,193.079926 52.388329,203.605881 
	C45.481880,211.265991 36.602985,217.167862 28.477705,223.697098 
	C25.910948,225.759674 23.022745,227.469864 20.132290,229.071838 
	C14.484179,232.202148 8.441374,233.787292 1.459168,232.999420 
	C1.000000,155.737930 1.000000,78.475853 1.000000,1.000000 
	C81.687439,1.000000 162.375061,1.000000 243.531342,1.000003 
z"/>
<path fill="#5C5EF2" opacity="1.000000" stroke="none" 
	d="
M121.437492,718.000000 
	C117.891075,716.718079 114.817871,715.339600 111.666084,714.173523 
	C104.371239,711.474670 98.253929,707.531921 96.451164,699.346985 
	C96.114662,697.819153 97.024269,696.016907 97.675995,694.171021 
	C98.158035,694.285706 98.450279,694.562744 98.468636,694.856812 
	C98.743744,699.264771 98.474380,704.099976 103.119209,706.502441 
	C108.740280,709.409790 114.627922,711.806091 120.426910,714.363037 
	C122.845619,715.429443 125.333138,716.339783 127.894676,717.660522 
	C125.958336,718.000000 123.916664,718.000000 121.437492,718.000000 
z"/>
<path fill="#5A60F2" opacity="1.000000" stroke="none" 
	d="
M592.357178,9.967869 
	C593.977478,7.238785 595.957336,4.478353 597.968628,1.358960 
	C599.066711,1.000000 600.133362,1.000000 601.600037,1.000000 
	C601.172363,6.333595 596.911926,8.101174 592.357178,9.967869 
z"/>
<path fill="#5A60F2" opacity="1.000000" stroke="none" 
	d="
M1.000000,581.333313 
	C2.770635,580.383545 4.541269,579.767151 6.655974,579.075317 
	C5.228225,580.283142 3.456405,581.566223 1.342292,582.924683 
	C1.000000,582.555542 1.000000,582.111084 1.000000,581.333313 
z"/>
<path fill="#FDFDFF" opacity="1.000000" stroke="none" 
	d="
M374.287415,429.631592 
	C365.272339,431.632629 358.882446,427.060364 353.265442,421.513031 
	C339.400574,407.819977 325.866943,393.792023 312.106628,379.991943 
	C309.926514,377.805511 307.462646,375.736359 304.775635,374.256226 
	C299.538269,371.371124 294.781097,371.953308 290.570099,376.049957 
	C279.904541,386.425842 269.416748,396.984406 258.851501,407.463470 
	C241.995377,424.182007 225.188797,440.951294 208.210632,457.544952 
	C205.913330,459.790253 202.860352,461.369171 199.955841,462.865723 
	C192.230957,466.845825 186.687531,462.146637 181.046936,457.853943 
	C172.525070,451.368561 169.185455,439.325073 174.685669,431.212097 
	C178.984116,424.871765 184.304718,419.151093 189.633698,413.599060 
	C198.850876,403.996124 208.408325,394.718964 217.857315,385.339691 
	C227.084305,376.180847 236.398819,367.109802 245.592712,357.918030 
	C254.660751,348.852081 263.438843,339.487732 272.700500,330.626740 
	C279.082825,324.520508 285.965027,318.916962 292.825775,313.337067 
	C297.918335,309.195251 303.288208,310.402802 307.885468,314.165161 
	C314.634674,319.688660 321.168884,325.499878 327.513153,331.486877 
	C335.494873,339.019165 343.206421,346.838409 351.006958,354.561676 
	C354.851501,358.368134 358.732666,362.145355 362.418335,366.102478 
	C366.514587,370.500549 372.051727,371.432800 376.550079,367.429291 
	C382.181976,362.416870 387.313049,356.840515 392.642548,351.489929 
	C400.170715,343.932007 407.646545,336.321564 415.213043,328.802338 
	C421.137878,322.914520 427.099396,317.060150 433.168701,311.322144 
	C438.660858,306.129822 444.382538,301.179718 449.853485,295.965942 
	C450.907104,294.961853 452.164093,292.783112 451.741974,291.938568 
	C451.081024,290.616180 449.144135,289.335571 447.615356,289.154449 
	C442.999725,288.607666 438.321930,288.456879 433.665558,288.405365 
	C414.181213,288.189789 394.679688,288.475159 375.219055,287.703552 
	C367.731964,287.406708 360.038818,285.640625 353.906616,280.370880 
	C344.434723,272.231110 344.443787,255.426346 359.655151,248.611481 
	C366.681122,245.463806 373.790985,244.116074 381.364532,244.123611 
	C410.355743,244.152435 439.347626,244.198853 468.338013,244.026825 
	C480.156769,243.956711 492.045197,244.044312 503.772614,242.820679 
	C522.352661,240.882065 532.494934,256.077759 533.138794,270.106659 
	C533.703247,282.404510 533.119812,294.755005 533.041565,307.946991 
	C533.110596,310.214417 533.181458,311.617096 533.252319,313.019775 
	C533.143066,315.008759 532.940247,316.997711 532.938660,318.986755 
	C532.917480,344.983246 532.929565,370.979706 532.921753,396.976196 
	C532.919556,404.348724 531.909485,411.325378 528.249756,418.081299 
	C521.642456,430.278534 508.237854,430.988586 499.557526,425.918060 
	C491.504089,421.213684 487.872620,413.916260 487.886963,404.819977 
	C487.924530,380.992584 488.188354,357.165375 488.157776,333.338348 
	C488.154083,330.456696 486.896149,327.576660 486.219543,324.695862 
	C483.807739,326.150909 480.985107,327.195923 479.054016,329.130737 
	C469.882721,338.319580 461.047638,347.843231 451.913116,357.069733 
	C442.799469,366.275177 433.401184,375.198364 424.259094,384.376129 
	C415.115051,393.555878 406.215759,402.979675 397.053772,412.141083 
	C390.327118,418.867340 383.170197,425.108490 374.287415,429.631592 
z"/>
<path fill="#5C5EF2" opacity="1.000000" stroke="none" 
	d="
M549.269531,283.840454 
	C551.548523,279.846802 553.626953,275.291199 556.744751,271.617889 
	C561.930298,265.508545 567.782776,259.965302 573.681824,254.093872 
	C572.231262,256.680725 570.700256,259.568237 568.628967,261.994507 
	C562.377380,269.317566 555.915833,276.461395 549.269531,283.840454 
z"/>
<path fill="#5C5EF2" opacity="1.000000" stroke="none" 
	d="
M656.000000,155.999237 
	C658.132629,151.739639 659.804199,147.158524 662.500610,143.292114 
	C667.109314,136.683578 672.360291,130.522919 677.673950,124.088470 
	C674.786865,128.773544 671.519714,133.512955 668.359863,138.322876 
	C664.375793,144.387512 660.479370,150.509674 656.272949,156.554352 
	C656.000549,156.334213 656.000305,156.166733 656.000000,155.999237 
z"/>
<path fill="#5C5EF2" opacity="1.000000" stroke="none" 
	d="
M242.319183,574.892212 
	C248.461349,565.417603 254.918472,555.827026 261.687805,546.118225 
	C255.544724,555.592102 249.089432,565.184204 242.319183,574.892212 
z"/>
<path fill="#5D5DF2" opacity="1.000000" stroke="none" 
	d="
M533.593079,312.960510 
	C533.181458,311.617096 533.110596,310.214417 533.153809,308.403381 
	C536.341492,303.004303 539.333008,297.960388 542.520813,293.043701 
	C544.290588,290.314056 546.388062,287.796844 548.666687,285.091614 
	C545.803772,291.130585 542.657959,297.286346 539.401489,303.382965 
	C537.678406,306.608856 535.762634,309.731842 533.593079,312.960510 
z"/>
<path fill="#5C5EF2" opacity="1.000000" stroke="none" 
	d="
M292.273499,504.806396 
	C292.053894,503.909180 291.675232,502.489075 292.220764,501.774048 
	C297.508972,494.842438 302.952240,488.029175 308.678650,481.092468 
	C303.518494,488.872101 298.030914,496.741394 292.273499,504.806396 
z"/>
<path fill="#5C5EF2" opacity="1.000000" stroke="none" 
	d="
M155.349930,632.924561 
	C158.004837,630.549377 160.829514,627.821167 164.059082,625.713440 
	C168.310486,622.938904 172.880203,620.652100 177.661804,618.080200 
	C177.239120,619.365479 176.807724,621.313599 175.639984,621.989319 
	C169.091461,625.778442 162.365326,629.260681 155.349930,632.924561 
z"/>
<path fill="#5C5EF2" opacity="1.000000" stroke="none" 
	d="
M655.670410,156.091995 
	C656.000305,156.166733 656.000549,156.334213 656.001465,156.752991 
	C650.190674,164.220200 644.379272,171.436127 638.285278,178.828888 
	C639.518494,176.554688 640.823547,173.938156 642.592468,171.685852 
	C646.723450,166.425827 651.077209,161.340714 655.670410,156.091995 
z"/>
<path fill="#5C5EF2" opacity="1.000000" stroke="none" 
	d="
M604.306152,224.849045 
	C608.449951,218.394897 612.899902,211.789169 617.678589,205.093430 
	C615.256958,212.734344 610.874084,219.354889 604.306152,224.849045 
z"/>
<path fill="#5D5DF2" opacity="1.000000" stroke="none" 
	d="
M267.282776,538.822266 
	C268.719330,536.253479 270.273224,533.384827 272.187134,530.780823 
	C275.808960,525.853088 279.637512,521.077271 283.694305,516.121094 
	C280.371124,524.889893 274.543671,532.184937 267.282776,538.822266 
z"/>
<path fill="#5D5DF2" opacity="1.000000" stroke="none" 
	d="
M131.296555,653.845825 
	C132.371368,651.856750 133.336060,649.226929 135.197845,647.669617 
	C139.331223,644.212097 143.914307,641.292175 148.659790,638.077759 
	C146.826141,640.124573 144.718674,642.327393 142.450790,644.350342 
	C138.888504,647.527893 135.218079,650.584167 131.296555,653.845825 
z"/>
<path fill="#5C5EF2" opacity="1.000000" stroke="none" 
	d="
M619.317322,203.880600 
	C618.796753,203.387543 618.216125,202.483871 618.436035,202.199692 
	C622.346741,197.145981 626.354675,192.167480 630.674683,187.088196 
	C627.215088,192.588501 623.422424,198.173401 619.317322,203.880600 
z"/>
<path fill="#5C5EF2" opacity="1.000000" stroke="none" 
	d="
M357.312378,446.849976 
	C358.336182,445.432800 359.493683,443.658386 361.038727,442.337128 
	C364.365601,439.492035 367.891815,436.880066 371.669739,434.087433 
	C369.059814,440.330353 363.283203,443.448975 357.312378,446.849976 
z"/>
<path fill="#5D5DF2" opacity="1.000000" stroke="none" 
	d="
M202.340424,606.910095 
	C202.343903,606.107971 202.438110,604.732910 203.072617,604.405823 
	C208.066620,601.830994 213.163925,599.456604 218.616196,597.011475 
	C213.562454,600.275818 208.121964,603.549194 202.340424,606.910095 
z"/>
<path fill="#5C5DF2" opacity="1.000000" stroke="none" 
	d="
M221.364227,594.975830 
	C225.117401,591.396851 229.230789,587.784607 233.677368,584.088989 
	C231.320221,589.229614 227.375610,593.044617 221.364227,594.975830 
z"/>
<path fill="#5D5DF2" opacity="1.000000" stroke="none" 
	d="
M117.279831,667.821045 
	C120.780731,663.723633 124.561569,659.447266 128.674286,655.086792 
	C125.190697,659.215942 121.375229,663.429016 117.279831,667.821045 
z"/>
<path fill="#5C5DF2" opacity="1.000000" stroke="none" 
	d="
M187.371429,613.971558 
	C190.817825,611.905762 194.635620,609.809509 198.727417,607.857910 
	C195.248550,609.981995 191.495682,611.961609 187.371429,613.971558 
z"/>
<path fill="#5C5EF2" opacity="1.000000" stroke="none" 
	d="
M577.282715,252.818146 
	C575.354919,248.050415 579.962097,247.985519 582.670654,246.088699 
	C581.194092,248.214767 579.379761,250.425644 577.282715,252.818146 
z"/>
<path fill="#5C5EF2" opacity="1.000000" stroke="none" 
	d="
M688.348145,116.905090 
	C689.089722,111.680504 693.798523,113.062973 697.602783,112.014427 
	C694.902832,113.607269 691.799561,115.210777 688.348145,116.905090 
z"/>
<path fill="#5D5DF2" opacity="1.000000" stroke="none" 
	d="
M324.355499,468.969757 
	C326.489075,467.219391 328.978149,465.438751 331.733612,463.828430 
	C329.570343,465.645691 327.140656,467.292603 324.355499,468.969757 
z"/>
<path fill="#5D5DF2" opacity="1.000000" stroke="none" 
	d="
M337.357361,459.929932 
	C339.428558,458.359344 341.854126,456.712219 344.642273,455.033752 
	C342.573822,456.619446 340.142761,458.236420 337.357361,459.929932 
z"/>
<path fill="#5C5EF2" opacity="1.000000" stroke="none" 
	d="
M310.343079,479.931641 
	C311.769165,478.365936 313.535126,476.724701 315.650513,475.041748 
	C314.227631,476.618713 312.455292,478.237396 310.343079,479.931641 
z"/>
<path fill="#5C5EF2" opacity="1.000000" stroke="none" 
	d="
M598.315063,231.890228 
	C599.459534,230.082611 600.916626,228.160446 602.685669,226.119049 
	C601.540894,227.925125 600.084229,229.850418 598.315063,231.890228 
z"/>
<path fill="#5C5EF2" opacity="1.000000" stroke="none" 
	d="
M587.291992,242.852142 
	C588.427734,241.357025 589.853088,239.711868 591.641724,238.034698 
	C590.530457,239.569153 589.055969,241.135635 587.291992,242.852142 
z"/>
<path fill="#5C5EF2" opacity="1.000000" stroke="none" 
	d="
M679.350586,122.974991 
	C680.432434,121.691910 681.862427,120.377296 683.647705,119.033066 
	C682.568237,120.316795 681.133545,121.630135 679.350586,122.974991 
z"/>
<path fill="#5C5DF2" opacity="1.000000" stroke="none" 
	d="
M235.272308,583.824219 
	C235.782349,582.730347 236.564713,581.460632 237.677292,580.097290 
	C237.186554,581.218567 236.365601,582.433472 235.272308,583.824219 
z"/>
<path fill="#5D5DF2" opacity="1.000000" stroke="none" 
	d="
M264.274353,542.828003 
	C264.783020,541.733521 265.563477,540.462158 266.673767,539.096680 
	C266.184479,540.218689 265.365295,541.434875 264.274353,542.828003 
z"/>
<path fill="#5D5DF2" opacity="1.000000" stroke="none" 
	d="
M318.332092,472.933746 
	C319.117554,472.053284 320.231995,471.099579 321.676636,470.074646 
	C320.891602,470.955811 319.776337,471.908142 318.332092,472.933746 
z"/>
<path fill="#5C5EF2" opacity="1.000000" stroke="none" 
	d="
M593.261841,236.839783 
	C593.775391,236.033936 594.548401,235.064041 595.663208,234.048523 
	C595.177124,234.893845 594.349182,235.784790 593.261841,236.839783 
z"/>
<path fill="#5C5EF2" opacity="1.000000" stroke="none" 
	d="
M584.328735,244.969543 
	C584.785217,244.363129 585.567383,243.718842 586.676025,243.038330 
	C586.219788,243.645294 585.437134,244.288467 584.328735,244.969543 
z"/>
<path fill="#5C5EF2" opacity="1.000000" stroke="none" 
	d="
M684.306152,118.932442 
	C684.785889,118.361115 685.568848,117.717888 686.678467,117.038788 
	C686.206543,117.622116 685.408020,118.241333 684.306152,118.932442 
z"/>
<path fill="#5C5DF2" opacity="1.000000" stroke="none" 
	d="
M183.305984,615.934082 
	C183.785858,615.362549 184.569046,614.718750 185.679047,614.039062 
	C185.207001,614.622681 184.408157,615.242249 183.305984,615.934082 
z"/>
<path fill="#5D5DF2" opacity="1.000000" stroke="none" 
	d="
M334.302795,462.925629 
	C334.781525,462.355133 335.563507,461.713806 336.670837,461.035736 
	C336.199493,461.617584 335.402771,462.236206 334.302795,462.925629 
z"/>
<path fill="#5C5EF2" opacity="1.000000" stroke="none" 
	d="
M372.254761,433.821167 
	C372.466919,433.090607 372.931519,432.178650 373.689453,431.137329 
	C373.490967,431.885223 372.999054,432.762543 372.254761,433.821167 
z"/>
<path fill="#5D5DF2" opacity="1.000000" stroke="none" 
	d="
M290.280396,507.897888 
	C290.481049,507.406769 290.960236,506.809265 291.717896,506.105652 
	C291.517212,506.596832 291.038086,507.194183 290.280396,507.897888 
z"/>
<path fill="#5D5DF2" opacity="1.000000" stroke="none" 
	d="
M351.278961,451.894592 
	C351.481323,451.403839 351.962646,450.807678 352.723206,450.106323 
	C352.520905,450.597168 352.039398,451.193176 351.278961,451.894592 
z"/>
<path fill="#5C5DF2" opacity="1.000000" stroke="none" 
	d="
M180.079865,617.225586 
	C180.441391,617.001587 180.886230,617.000793 181.664612,617.000000 
	C181.386505,617.149597 180.774826,617.299133 180.079865,617.225586 
z"/>
<path fill="#5A60F2" opacity="1.000000" stroke="none" 
	d="
M399.330200,204.913437 
	C403.276978,198.276581 407.011658,191.123703 411.932465,184.910187 
	C426.782257,166.159317 442.100433,147.779541 457.222076,129.243744 
	C474.247925,108.373878 495.252106,91.762245 515.667358,74.509956 
	C524.677185,66.895996 533.514709,59.078030 542.715210,51.176147 
	C541.126099,53.665813 539.682312,56.818455 537.307678,58.918400 
	C522.986267,71.583206 508.866455,84.531647 493.880737,96.374947 
	C476.195557,110.351616 462.126068,127.580246 447.862793,144.667496 
	C435.402222,159.595123 423.501068,174.989761 411.354950,190.179810 
	C407.453217,195.059326 403.558411,199.944366 399.330200,204.913437 
z"/>
<path fill="#5A60F2" opacity="1.000000" stroke="none" 
	d="
M546.355896,48.967796 
	C548.308960,46.520882 550.388916,43.764736 552.974365,41.617161 
	C561.324890,34.680977 569.861389,27.968649 578.661865,21.083862 
	C576.316772,23.830971 573.821533,26.872936 570.917908,29.455675 
	C564.122009,35.500462 557.154663,41.354061 550.189636,47.205231 
	C549.226135,48.014622 547.882080,48.371056 546.355896,48.967796 
z"/>
<path fill="#5A60F2" opacity="1.000000" stroke="none" 
	d="
M328.363159,258.967407 
	C328.521332,258.357910 328.916504,257.499237 329.585327,257.105774 
	C342.129974,249.725311 354.707092,242.400055 367.638611,235.031158 
	C365.317657,237.124969 362.842346,239.605331 359.916077,241.312775 
	C349.603485,247.330032 339.136169,253.082108 328.363159,258.967407 
z"/>
<path fill="#5A60F2" opacity="1.000000" stroke="none" 
	d="
M263.362488,329.967712 
	C266.692719,323.626984 270.365997,317.243286 274.087067,310.887573 
	C275.165100,309.046265 276.380005,307.285065 277.766052,305.243591 
	C275.589569,310.768677 273.528381,316.721130 270.628143,322.232086 
	C269.070740,325.191406 266.072113,327.392303 263.362488,329.967712 
z"/>
<path fill="#5A60F2" opacity="1.000000" stroke="none" 
	d="
M44.331184,547.914978 
	C48.779011,543.056152 53.557865,538.112305 58.667587,533.083008 
	C54.219704,537.941650 49.440960,542.885803 44.331184,547.914978 
z"/>
<path fill="#5A60F2" opacity="1.000000" stroke="none" 
	d="
M117.329117,469.913879 
	C120.444466,466.388763 123.891106,462.779083 127.668716,459.084076 
	C124.553261,462.608948 121.106834,466.219116 117.329117,469.913879 
z"/>
<path fill="#5A60F2" opacity="1.000000" stroke="none" 
	d="
M154.329010,434.913757 
	C157.110779,431.721771 160.223846,428.445251 163.667755,425.083313 
	C160.885818,428.275024 157.773071,431.552124 154.329010,434.913757 
z"/>
<path fill="#5A60F2" opacity="1.000000" stroke="none" 
	d="
M287.332092,291.914917 
	C289.780182,289.056427 292.559143,286.112854 295.669067,283.084045 
	C293.220978,285.942474 290.441956,288.886169 287.332092,291.914917 
z"/>
<path fill="#5A60F2" opacity="1.000000" stroke="none" 
	d="
M213.358383,373.968872 
	C216.143768,371.117615 219.287537,368.235199 222.715912,365.176575 
	C219.905945,367.979492 216.811356,370.958618 213.358383,373.968872 
z"/>
<path fill="#5A60F2" opacity="1.000000" stroke="none" 
	d="
M193.330536,392.914978 
	C195.779007,390.056641 198.558502,387.113281 201.669006,384.084961 
	C199.220505,386.943329 196.441025,389.886658 193.330536,392.914978 
z"/>
<path fill="#5A60F2" opacity="1.000000" stroke="none" 
	d="
M95.332062,492.914673 
	C97.480598,490.120117 99.960869,487.240204 102.720688,484.180786 
	C100.554749,486.943939 98.109268,489.886627 95.332062,492.914673 
z"/>
<path fill="#5A60F2" opacity="1.000000" stroke="none" 
	d="
M244.329315,345.913208 
	C246.768829,343.382263 249.540329,340.766663 252.655914,338.075317 
	C250.220428,340.609253 247.440857,343.218903 244.329315,345.913208 
z"/>
<path fill="#5A60F2" opacity="1.000000" stroke="none" 
	d="
M170.331757,417.914673 
	C172.480469,415.120239 174.960953,412.240479 177.721039,409.181244 
	C175.554947,411.944275 173.109238,414.886780 170.331757,417.914673 
z"/>
<path fill="#5A60F2" opacity="1.000000" stroke="none" 
	d="
M368.366333,234.969849 
	C370.770508,233.049683 373.541840,231.099991 376.656372,229.074493 
	C374.244232,230.979233 371.488861,232.959778 368.366333,234.969849 
z"/>
<path fill="#5A60F2" opacity="1.000000" stroke="none" 
	d="
M313.360443,268.968048 
	C315.769867,267.050476 318.540955,265.100983 321.656006,263.075745 
	C319.240692,264.978699 316.481415,266.957397 313.360443,268.968048 
z"/>
<path fill="#5A60F2" opacity="1.000000" stroke="none" 
	d="
M83.334198,506.913635 
	C84.814255,504.786438 86.627899,502.572845 88.720779,500.179626 
	C87.222603,502.275757 85.445198,504.551514 83.334198,506.913635 
z"/>
<path fill="#5A60F2" opacity="1.000000" stroke="none" 
	d="
M68.329697,522.915283 
	C69.779434,521.056030 71.559151,519.112061 73.668602,517.082764 
	C72.218781,518.941895 70.439224,520.886230 68.329697,522.915283 
z"/>
<path fill="#5A60F2" opacity="1.000000" stroke="none" 
	d="
M23.342182,567.924561 
	C24.776310,566.389709 26.553381,564.779480 28.664635,563.083374 
	C27.227583,564.614746 25.456352,566.231934 23.342182,567.924561 
z"/>
<path fill="#5A60F2" opacity="1.000000" stroke="none" 
	d="
M254.359146,336.968445 
	C256.112213,335.389313 258.224426,333.778625 260.668335,332.083984 
	C258.906097,333.645630 256.812195,335.291260 254.359146,336.968445 
z"/>
<path fill="#5A60F2" opacity="1.000000" stroke="none" 
	d="
M13.365032,574.970520 
	C15.113739,573.389526 17.227449,571.779114 19.670580,570.084351 
	C17.910011,571.647034 15.820023,573.294006 13.365032,574.970520 
z"/>
<path fill="#5A60F2" opacity="1.000000" stroke="none" 
	d="
M208.325378,378.914612 
	C209.445038,377.388336 210.893829,375.778351 212.671326,374.084198 
	C211.551514,375.610321 210.103027,377.220612 208.325378,378.914612 
z"/>
<path fill="#5A60F2" opacity="1.000000" stroke="none" 
	d="
M182.328720,404.915710 
	C183.447174,403.388794 184.894348,401.777588 186.670044,400.081543 
	C185.551514,401.608276 184.104477,403.219849 182.328720,404.915710 
z"/>
<path fill="#5A60F2" opacity="1.000000" stroke="none" 
	d="
M149.326385,439.914246 
	C150.445312,438.387512 151.893295,436.777161 153.669769,435.082153 
	C152.550659,436.608551 151.103043,438.219574 149.326385,439.914246 
z"/>
<path fill="#5A60F2" opacity="1.000000" stroke="none" 
	d="
M139.325928,448.914978 
	C140.445450,447.388641 141.894043,445.778534 143.671326,444.084229 
	C142.551666,445.610382 141.103333,447.220764 139.325928,448.914978 
z"/>
<path fill="#5A60F2" opacity="1.000000" stroke="none" 
	d="
M38.363327,553.967163 
	C39.485451,552.449463 40.970158,550.898987 42.727501,549.174194 
	C41.575390,550.644775 40.150646,552.289551 38.363327,553.967163 
z"/>
<path fill="#5A60F2" opacity="1.000000" stroke="none" 
	d="
M8.336698,578.923767 
	C9.444867,577.720398 10.893309,576.443176 12.670876,575.083008 
	C11.558990,576.283325 10.117980,577.566650 8.336698,578.923767 
z"/>
<path fill="#5A60F2" opacity="1.000000" stroke="none" 
	d="
M144.354889,443.969421 
	C145.452026,442.719482 146.904037,441.438934 148.677002,440.077972 
	C147.568542,441.311310 146.139160,442.625092 144.354889,443.969421 
z"/>
<path fill="#5A60F2" opacity="1.000000" stroke="none" 
	d="
M133.355988,453.969604 
	C134.453064,452.719635 135.904907,451.438995 137.677658,450.077637 
	C136.569305,451.310913 135.140030,452.624939 133.355988,453.969604 
z"/>
<path fill="#5A60F2" opacity="1.000000" stroke="none" 
	d="
M164.333832,424.910278 
	C165.147446,423.451324 166.296860,421.903900 167.723145,420.178528 
	C166.889877,421.607666 165.779755,423.214691 164.333832,424.910278 
z"/>
<path fill="#5A60F2" opacity="1.000000" stroke="none" 
	d="
M393.335571,212.911087 
	C394.148712,211.452103 395.297424,209.904221 396.723083,208.178467 
	C395.890381,209.607803 394.780762,211.214996 393.335571,212.911087 
z"/>
<path fill="#5A60F2" opacity="1.000000" stroke="none" 
	d="
M302.322449,277.915771 
	C303.113739,276.721405 304.231110,275.444000 305.674255,274.083313 
	C304.882843,275.277588 303.765717,276.555176 302.322449,277.915771 
z"/>
<path fill="#5A60F2" opacity="1.000000" stroke="none" 
	d="
M307.322510,273.915283 
	C308.113800,272.721039 309.231232,271.443909 310.674347,270.083374 
	C309.882874,271.277466 308.765747,272.554901 307.322510,273.915283 
z"/>
<path fill="#5A60F2" opacity="1.000000" stroke="none" 
	d="
M232.326202,356.916473 
	C233.116638,355.722321 234.232666,354.444641 235.674347,353.083496 
	C234.883942,354.277649 233.767868,355.555298 232.326202,356.916473 
z"/>
<path fill="#5A60F2" opacity="1.000000" stroke="none" 
	d="
M227.325134,361.916534 
	C228.115814,360.722321 229.232254,359.444641 230.674347,358.083496 
	C229.883621,359.277679 228.767258,360.555389 227.325134,361.916534 
z"/>
<path fill="#5A60F2" opacity="1.000000" stroke="none" 
	d="
M104.325981,482.916443 
	C105.116249,481.721954 106.232193,480.443909 107.673676,479.081970 
	C106.883369,480.276337 105.767509,481.554596 104.325981,482.916443 
z"/>
<path fill="#5A60F2" opacity="1.000000" stroke="none" 
	d="
M203.367157,382.985657 
	C204.110596,382.023132 205.220581,381.046295 206.664093,380.032288 
	C205.909653,380.987183 204.821686,381.979279 203.367157,382.985657 
z"/>
<path fill="#5A60F2" opacity="1.000000" stroke="none" 
	d="
M279.329956,302.905029 
	C279.819183,301.784119 280.637604,300.568237 281.728027,299.176086 
	C281.219696,300.269928 280.439423,301.539978 279.329956,302.905029 
z"/>
<path fill="#5A60F2" opacity="1.000000" stroke="none" 
	d="
M322.348206,262.969574 
	C323.123383,262.050842 324.246765,261.101715 325.685089,260.076294 
	C324.898834,260.979736 323.797638,261.959442 322.348206,262.969574 
z"/>
<path fill="#5A60F2" opacity="1.000000" stroke="none" 
	d="
M240.348267,348.969543 
	C241.122849,348.050385 242.245728,347.100769 243.683243,346.074341 
	C242.897446,346.978058 241.796982,347.958588 240.348267,348.969543 
z"/>
<path fill="#5A60F2" opacity="1.000000" stroke="none" 
	d="
M223.348801,364.969574 
	C224.123856,364.050995 225.247101,363.101959 226.685181,362.076477 
	C225.898987,362.979706 224.797989,363.959442 223.348801,364.969574 
z"/>
<path fill="#5A60F2" opacity="1.000000" stroke="none" 
	d="
M189.316223,396.915192 
	C189.789978,396.056488 190.579330,395.112976 191.684357,394.084717 
	C191.210602,394.943451 190.421204,395.886932 189.316223,396.915192 
z"/>
<path fill="#5A60F2" opacity="1.000000" stroke="none" 
	d="
M109.313705,477.914337 
	C109.787575,477.054932 110.577499,476.111115 111.682922,475.081818 
	C111.208878,475.940857 110.419319,476.885376 109.313705,477.914337 
z"/>
<path fill="#5A60F2" opacity="1.000000" stroke="none" 
	d="
M378.314606,227.914963 
	C378.788727,227.056183 379.578674,226.112793 380.684326,225.084717 
	C380.210144,225.943466 379.420288,226.886917 378.314606,227.914963 
z"/>
<path fill="#5A60F2" opacity="1.000000" stroke="none" 
	d="
M129.315125,457.915283 
	C129.789154,457.056549 130.578903,456.113098 131.684326,455.084961 
	C131.210297,455.943695 130.420578,456.887115 129.315125,457.915283 
z"/>
<path fill="#5A60F2" opacity="1.000000" stroke="none" 
	d="
M297.315674,281.915222 
	C297.789581,281.056488 298.579163,280.112946 299.684387,279.084717 
	C299.210449,279.943481 298.420898,280.886963 297.315674,281.915222 
z"/>
<path fill="#5A60F2" opacity="1.000000" stroke="none" 
	d="
M29.314201,562.914429 
	C29.788267,562.055420 30.578262,561.111877 31.683868,560.083252 
	C31.209698,560.942078 30.419916,561.885986 29.314201,562.914429 
z"/>
<path fill="#5A60F2" opacity="1.000000" stroke="none" 
	d="
M397.295624,207.870117 
	C397.498169,207.121140 397.996338,206.242264 398.747253,205.181610 
	C398.530396,205.913300 398.060822,206.826767 397.295624,207.870117 
z"/>
<path fill="#5A60F2" opacity="1.000000" stroke="none" 
	d="
M384.292419,222.869324 
	C384.495667,222.120499 384.994995,221.242493 385.747162,220.183075 
	C385.529510,220.914505 385.059021,221.827332 384.292419,222.869324 
z"/>
<path fill="#5A60F2" opacity="1.000000" stroke="none" 
	d="
M20.325907,569.963318 
	C20.797737,569.381104 21.595463,568.762207 22.696392,568.071655 
	C22.216997,568.642212 21.434399,569.284424 20.325907,569.963318 
z"/>
<path fill="#5A60F2" opacity="1.000000" stroke="none" 
	d="
M34.326614,557.963257 
	C34.797871,557.380310 35.595108,556.760620 36.695389,556.068604 
	C36.216488,556.639648 35.434540,557.283020 34.326614,557.963257 
z"/>
<path fill="#5A60F2" opacity="1.000000" stroke="none" 
	d="
M92.295593,496.870178 
	C92.498230,496.121429 92.996445,495.242859 93.747482,494.182739 
	C93.530586,494.914276 93.060875,495.827332 92.295593,496.870178 
z"/>
<path fill="#5A60F2" opacity="1.000000" stroke="none" 
	d="
M114.327164,471.963257 
	C114.798347,471.380524 115.595375,470.761078 116.695480,470.069641 
	C116.216713,470.640625 115.434860,471.283569 114.327164,471.963257 
z"/>
<path fill="#5A60F2" opacity="1.000000" stroke="none" 
	d="
M584.325928,15.963553 
	C584.797852,15.381200 585.595642,14.762159 586.696777,14.071471 
	C586.217285,14.642171 585.434631,15.284519 584.325928,15.963553 
z"/>
<path fill="#5A60F2" opacity="1.000000" stroke="none" 
	d="
M283.296631,296.870117 
	C283.499023,296.121490 283.996826,295.243011 284.747314,294.182922 
	C284.530701,294.914276 284.061401,295.827240 283.296631,296.870117 
z"/>
<path fill="#5A60F2" opacity="1.000000" stroke="none" 
	d="
M64.279037,526.894287 
	C64.480896,526.403687 64.961487,525.807373 65.720932,525.105530 
	C65.519112,525.596191 65.038437,526.192383 64.279037,526.894287 
z"/>
<path fill="#5A60F2" opacity="1.000000" stroke="none" 
	d="
M74.228302,516.924927 
	C74.212555,516.478088 74.427345,515.958496 74.821213,515.219421 
	C74.819809,515.617371 74.639313,516.234802 74.228302,516.924927 
z"/>
<path fill="#5A60F2" opacity="1.000000" stroke="none" 
	d="
M180.279312,406.894287 
	C180.481186,406.403717 180.961777,405.807465 181.721176,405.105591 
	C181.519348,405.596191 181.038696,406.192383 180.279312,406.894287 
z"/>
<path fill="#5A60F2" opacity="1.000000" stroke="none" 
	d="
M579.276733,20.893049 
	C579.479065,20.402378 579.960632,19.806549 580.721069,19.105282 
	C580.518616,19.595860 580.037292,20.191877 579.276733,20.893049 
z"/>
</svg>